#!OML:ASF H:\Terrain\Patient Classification 1\PLAYGROUND\JustinFriday\JustinFriday.ASF
:FULLY-SPECIFIED
:DEGREES
2756
root 3.03417 16.4917 11.8028 511.227 -80.5717 -142.04
lowerback 22.9509 1.36816 2.37286
upperback -0.920932 2.73467 2.63351
thorax -14.0323 1.15277 0.711855
lowerneck -8.6925 -0.183778 -2.86603
upperneck 1.74192 -0.201843 5.23886
head 2.08688 0.0100395 2.18513
rclavicle -1.54058e-014 -2.76311e-014
rhumerus 92.9514 -16.0375 -66.9245
rradius 55.842
rwrist 12.102
rhand -14.4745 -11.602
rfingers 7.12502
rthumb 11.6716 -401.257
lclavicle -1.54058e-014 -2.76311e-014
lhumerus 90.6541 22.7427 60.3654
lradius 55.3825
lwrist -17.2699
lhand -6.92708 -14.836
lfingers 7.12502
lthumb 18.941 14.2618
rfemur -10.723 1.85977 30.3718
rtibia 50.6927
rfoot -31.213 -9.16019
rtoes -1.47264
lfemur -13.4529 7.60788 -8.50668
ltibia 62.2165
lfoot -18.4571 -4.08001
ltoes -13.455
2757
root 2.86837 16.4581 11.7768 509.239 -80.4982 -140.433
lowerback 22.6829 1.30835 2.63054
upperback -1.03799 2.7382 2.75523
thorax -14.0115 1.1426 0.70725
lowerneck -8.82373 -0.220026 -2.9253
upperneck 2.44532 -0.255345 5.1537
head 2.34724 -0.00977515 2.17581
rclavicle -2.82274e-014 -1.74931e-014
rhumerus 92.4679 -15.4959 -67.2401
rradius 56.4655
rwrist 12.3812
rhand -14.1786 -11.6786
rfingers 7.12502
rthumb 11.9569 -401.317
lclavicle -2.82274e-014 -1.74931e-014
lhumerus 90.0096 22.538 60.5927
lradius 55.9247
lwrist -16.7395
lhand -6.51247 -15.5277
lfingers 7.12502
lthumb 19.3397 13.5306
rfemur -9.61576 1.49377 30.6676
rtibia 50.5969
rfoot -31.4325 -9.13293
rtoes -1.87672
lfemur -13.3106 7.30299 -7.95542
ltibia 63.5927
lfoot -17.4568 -4.57436
ltoes -12.8143
2758
root 2.7016 16.425 11.7622 508.626 -80.4776 -140.234
lowerback 22.5052 1.32123 2.83503
upperback -1.16249 2.815 2.77613
thorax -14.0475 1.1642 0.591559
lowerneck -9.52261 -0.397088 -2.82942
upperneck 3.76676 -0.514901 4.91878
head 2.93333 -0.124688 2.09152
rclavicle 6.36111e-015 -6.36111e-015
rhumerus 91.2766 -15.6935 -66.8178
rradius 57.7173
rwrist 11.676
rhand -14.3412 -12.4244
rfingers 7.12502
rthumb 11.8001 -402.072
lclavicle 6.36111e-015 -6.36111e-015
lhumerus 89.2564 22.2147 60.5716
lradius 56.7269
lwrist -16.4516
lhand -7.07935 -14.2764
lfingers 7.12502
lthumb 18.7945 14.8356
rfemur -8.45458 0.936978 30.6105
rtibia 50.4225
rfoot -31.5 -9.01768
rtoes -2.93708
lfemur -13.1503 7.04617 -7.76816
ltibia 64.9399
lfoot -16.3934 -4.47626
ltoes -11.9605
2759
root 2.53487 16.3838 11.75 508.339 -80.5677 -140.395
lowerback 22.2784 1.31636 2.95082
upperback -1.18204 2.82457 2.72122
thorax -13.9304 1.16045 0.463795
lowerneck -10.22 -0.515676 -2.67049
upperneck 4.69281 -0.698287 4.74724
head 3.39122 -0.204271 2.01329
rclavicle 1.19271e-015 1.49089e-014
rhumerus 90.4454 -15.7321 -66.8935
rradius 58.9104
rwrist 11.1142
rhand -14.2114 -12.2164
rfingers 7.12502
rthumb 11.9253 -401.857
lclavicle 1.19271e-015 1.49089e-014
lhumerus 88.5728 21.8952 60.5861
lradius 57.869
lwrist -16.3235
lhand -7.60546 -12.5544
lfingers 7.12502
lthumb 18.2884 16.6059
rfemur -7.2166 0.466552 30.423
rtibia 50.2438
rfoot -31.4217 -9.13669
rtoes -4.06137
lfemur -13.0076 6.81048 -7.71162
ltibia 66.2784
lfoot -15.1732 -4.41501
ltoes -10.5373
2760
root 2.35783 16.3472 11.7324 507.448 -80.6112 -139.88
lowerback 21.844 1.31447 3.0877
upperback -1.14421 2.83324 2.7054
thorax -13.6271 1.15987 0.373245
lowerneck -10.341 -0.528373 -2.80773
upperneck 4.7915 -0.729834 5.13162
head 3.45784 -0.205479 2.17029
rclavicle 3.07122e-014 2.28602e-014
rhumerus 89.9753 -15.6736 -67.3453
rradius 59.8415
rwrist 11.0098
rhand -13.6834 -11.1637
rfingers 7.12502
rthumb 12.4343 -400.774
lclavicle 3.07122e-014 2.28602e-014
lhumerus 88.115 21.5921 60.9454
lradius 58.9313
lwrist -16.2099
lhand -7.32432 -12.2748
lfingers 7.12502
lthumb 18.5589 16.8599
rfemur -6.01058 0.383076 30.438
rtibia 50.0825
rfoot -31.3103 -9.02161
rtoes -4.11505
lfemur -12.8795 6.72438 -7.4578
ltibia 67.557
lfoot -14.1084 -4.41464
ltoes -9.81754
